<svg id="katman_1" data-name="katman 1" xmlns="http://www.w3.org/2000/svg" viewBox="0 0 128 128"><defs><style>.cls-1{fill:#9c1829;}.cls-2{fill:#fff;}</style></defs><circle class="cls-1" cx="64" cy="64" r="64"/><path class="cls-2" d="M58.48,73.7V46.5h6.89V74c0,1.48.68,2,1.24,2a2.81,2.81,0,0,0,.84-.1l.82,5.08a9,9,0,0,1-3.45.57C60.1,81.48,58.48,78.4,58.48,73.7Z"/><path class="cls-2" d="M31.51,46.68h6.14v12a14.19,14.19,0,0,1,3.65-2.34A9.32,9.32,0,0,1,45,55.56a8.39,8.39,0,0,1,6.19,2.54c1.44,1.47,2.15,3.62,2.15,6.47v16.3h-6.1V70.05a27,27,0,0,0-.4-5.8A4.11,4.11,0,0,0,45.46,62,3.92,3.92,0,0,0,43,61.23a4.61,4.61,0,0,0-3.23,1.25,6.64,6.64,0,0,0-1.87,3.4A28.42,28.42,0,0,0,37.65,71v9.91H31.51Z"/><path class="cls-2" d="M90.3,56.2h6.19V80.87H90.3V78.26a11.94,11.94,0,0,1-3.63,2.48,10.11,10.11,0,0,1-4,.76,11,11,0,0,1-8.27-3.7A12.92,12.92,0,0,1,71,68.58a13.28,13.28,0,0,1,3.38-9.37,10.76,10.76,0,0,1,8.2-3.65,10.38,10.38,0,0,1,4.16.84,11.32,11.32,0,0,1,3.6,2.52Zm-6.5,5.08a6.22,6.22,0,0,0-4.77,2,7.29,7.29,0,0,0-1.9,5.2,7.37,7.37,0,0,0,1.93,5.26,6.27,6.27,0,0,0,4.76,2.07,6.42,6.42,0,0,0,4.84-2,7.44,7.44,0,0,0,1.92-5.32,7.21,7.21,0,0,0-1.92-5.22A6.47,6.47,0,0,0,83.8,61.28Z"/></svg>