<svg id="katman_1" data-name="katman 1" xmlns="http://www.w3.org/2000/svg" viewBox="0 0 167 30"><defs><style>.cls-1{fill:#fff;}</style></defs><path class="cls-1" d="M28,12.71V.71h3V12.84c0,.65.31.86.55.86a1.44,1.44,0,0,0,.38,0l.36,2.24a4.05,4.05,0,0,1-1.53.25C28.72,16.15,28,14.79,28,12.71Z"/><path class="cls-1" d="M81.23,12.71V.71h3V12.84c0,.65.3.86.55.86a1.33,1.33,0,0,0,.37,0l.37,2.24a4.05,4.05,0,0,1-1.53.25C82,16.15,81.23,14.79,81.23,12.71Z"/><path class="cls-1" d="M2.94,22.35h.52v2.31a2.28,2.28,0,0,1,.7-.63A1.71,1.71,0,0,1,5,23.82a1.5,1.5,0,0,1,.81.23,1.39,1.39,0,0,1,.52.63,3.13,3.13,0,0,1,.17,1.22V28H6V26.06a4.6,4.6,0,0,0-.06-.94,1,1,0,0,0-.35-.61,1,1,0,0,0-.68-.21,1.3,1.3,0,0,0-.85.32,1.47,1.47,0,0,0-.49.78,5.29,5.29,0,0,0-.08,1.11V28H2.94Z"/><path class="cls-1" d="M9,23.92h.52v1.91a4.05,4.05,0,0,0,.08,1,1,1,0,0,0,.43.59,1.33,1.33,0,0,0,.75.22,1.3,1.3,0,0,0,.75-.21,1.16,1.16,0,0,0,.42-.56,4,4,0,0,0,.08-1V23.92h.53v2a3.23,3.23,0,0,1-.19,1.27,1.59,1.59,0,0,1-.59.67,1.92,1.92,0,0,1-1,.24,1.91,1.91,0,0,1-1-.24,1.52,1.52,0,0,1-.6-.68A3.33,3.33,0,0,1,9,25.89Z"/><path class="cls-1" d="M15.19,22.35h.53v3.22l1.89-1.65h.77l-2.24,1.95L18.51,28h-.74l-2-1.83V28h-.53Z"/><path class="cls-1" d="M20.44,23.92H21v1.91a4.21,4.21,0,0,0,.07,1,1.08,1.08,0,0,0,.43.59,1.34,1.34,0,0,0,.76.22,1.27,1.27,0,0,0,.74-.21,1.05,1.05,0,0,0,.42-.56,3.59,3.59,0,0,0,.08-1V23.92H24v2a3.2,3.2,0,0,1-.2,1.27,1.59,1.59,0,0,1-.59.67,1.86,1.86,0,0,1-1,.24,1.92,1.92,0,0,1-1-.24,1.56,1.56,0,0,1-.59-.68,3.3,3.3,0,0,1-.2-1.3Z"/><path class="cls-1" d="M26.63,22.35h.52v3.22L29,23.92h.77l-2.24,1.95L30,28h-.74l-2.06-1.83V28h-.52Z"/><path class="cls-1" d="M35.56,28V22.35h.52v2.28a2.22,2.22,0,0,1,.74-.61,2,2,0,0,1,.9-.2,2,2,0,0,1,1.47.63,2.16,2.16,0,0,1,0,3,2,2,0,0,1-1.49.63,1.82,1.82,0,0,1-.9-.22,2.06,2.06,0,0,1-.72-.64V28Zm2.1-.4a1.53,1.53,0,0,0,1.39-.82,1.6,1.6,0,0,0,.22-.82,1.64,1.64,0,0,0-.22-.83,1.54,1.54,0,0,0-1.38-.83,1.7,1.7,0,0,0-.82.21,1.57,1.57,0,0,0-.6.6,1.73,1.73,0,0,0-.2.83,1.64,1.64,0,0,0,.46,1.19A1.56,1.56,0,0,0,37.66,27.6Z"/><path class="cls-1" d="M42.15,23.92h.53v1.91a4.21,4.21,0,0,0,.07,1,1.08,1.08,0,0,0,.43.59,1.36,1.36,0,0,0,.76.22,1.27,1.27,0,0,0,.74-.21,1.12,1.12,0,0,0,.43-.56,4.22,4.22,0,0,0,.07-1V23.92h.54v2a3.2,3.2,0,0,1-.2,1.27,1.59,1.59,0,0,1-.59.67,1.86,1.86,0,0,1-1,.24,1.92,1.92,0,0,1-1-.24,1.56,1.56,0,0,1-.59-.68,3.3,3.3,0,0,1-.2-1.3Zm1.05-1.61a.46.46,0,0,1,.31.13.44.44,0,0,1-.62.62.44.44,0,0,1,.31-.75Zm1.53,0a.44.44,0,0,1,.3.75.41.41,0,0,1-.3.12.43.43,0,0,1-.31-.12.43.43,0,0,1,0-.62A.44.44,0,0,1,44.73,22.31Z"/><path class="cls-1" d="M48.15,23.92h.53v.6a2,2,0,0,1,.51-.53.92.92,0,0,1,1,0l-.28.44a.67.67,0,0,0-.27-.07.76.76,0,0,0-.51.21,1.39,1.39,0,0,0-.37.67,6.15,6.15,0,0,0-.1,1.41V28h-.53Z"/><path class="cls-1" d="M54,23.82a2,2,0,0,1,1.56.68,2.18,2.18,0,0,1,0,3,2,2,0,0,1-1.53.64,2,2,0,0,1-1.53-.64,2.18,2.18,0,0,1,0-3A2,2,0,0,1,54,23.82Zm0,.51a1.51,1.51,0,0,0-1.13.49A1.62,1.62,0,0,0,52.44,26a1.68,1.68,0,0,0,.22.82,1.43,1.43,0,0,0,.58.59,1.63,1.63,0,0,0,1.6,0,1.5,1.5,0,0,0,.58-.59,1.67,1.67,0,0,0,.21-.82,1.58,1.58,0,0,0-.47-1.17A1.49,1.49,0,0,0,54,24.33Z"/><path class="cls-1" d="M60.64,24.37l-.33.35a1.23,1.23,0,0,0-.83-.41.61.61,0,0,0-.43.17.49.49,0,0,0-.19.39.57.57,0,0,0,.15.38,2.06,2.06,0,0,0,.63.43,2.22,2.22,0,0,1,.8.59,1,1,0,0,1,.21.64,1.14,1.14,0,0,1-.36.85,1.19,1.19,0,0,1-.88.35,1.44,1.44,0,0,1-.67-.16,1.46,1.46,0,0,1-.53-.42l.33-.37a1.15,1.15,0,0,0,.85.45.8.8,0,0,0,.54-.2.64.64,0,0,0,.22-.48.6.6,0,0,0-.15-.4,2.42,2.42,0,0,0-.66-.44,2,2,0,0,1-.75-.56,1.05,1.05,0,0,1-.2-.63,1,1,0,0,1,.32-.77,1.09,1.09,0,0,1,.8-.31A1.63,1.63,0,0,1,60.64,24.37Z"/><path class="cls-1" d="M63,23.92h.53v1.91a4.21,4.21,0,0,0,.07,1,1.08,1.08,0,0,0,.43.59,1.36,1.36,0,0,0,.76.22,1.27,1.27,0,0,0,.74-.21,1.12,1.12,0,0,0,.43-.56,4,4,0,0,0,.08-1V23.92h.53v2a3,3,0,0,1-.2,1.27,1.53,1.53,0,0,1-.59.67,2.16,2.16,0,0,1-2,0,1.52,1.52,0,0,1-.6-.68,3.3,3.3,0,0,1-.2-1.3Z"/><path class="cls-1" d="M84.39,23.92V28h-.52v-.7a2.09,2.09,0,0,1-.74.6,1.91,1.91,0,0,1-.89.21,2,2,0,0,1-1.48-.63A2.11,2.11,0,0,1,80.14,26a2,2,0,0,1,.62-1.5,2,2,0,0,1,1.49-.63,1.94,1.94,0,0,1,.91.21,2.15,2.15,0,0,1,.71.64v-.75Zm-2.1.41a1.63,1.63,0,0,0-.81.21,1.55,1.55,0,0,0-.58.61,1.64,1.64,0,0,0,0,1.64,1.51,1.51,0,0,0,.59.61,1.53,1.53,0,0,0,.8.22,1.7,1.7,0,0,0,.82-.21,1.59,1.59,0,0,0,.59-.59,1.69,1.69,0,0,0,.21-.84,1.63,1.63,0,0,0-.47-1.18A1.52,1.52,0,0,0,82.29,24.33Z"/><path class="cls-1" d="M87.49,22.41H88v1.51h.83v.46H88V28h-.52V24.38h-.72v-.46h.72Z"/><path class="cls-1" d="M91.54,22.41h.53v1.51h.83v.46h-.83V28h-.53V24.38h-.71v-.46h.71Z"/><path class="cls-1" d="M97.08,23.82a2,2,0,0,1,1.56.68,2.21,2.21,0,0,1,0,3,2.16,2.16,0,0,1-3.07,0A2.17,2.17,0,0,1,95,26a2.12,2.12,0,0,1,.56-1.46A2,2,0,0,1,97.08,23.82Zm0,.51a1.49,1.49,0,0,0-1.12.49A1.62,1.62,0,0,0,95.48,26a1.67,1.67,0,0,0,.21.82,1.57,1.57,0,0,0,.58.59,1.65,1.65,0,0,0,1.61,0,1.57,1.57,0,0,0,.58-.59,1.67,1.67,0,0,0,.21-.82,1.62,1.62,0,0,0-.47-1.17A1.51,1.51,0,0,0,97.07,24.33Z"/><path class="cls-1" d="M101.43,23.92H102v.6a2.14,2.14,0,0,1,.5-.53,1.07,1.07,0,0,1,.56-.17,1,1,0,0,1,.46.14l-.27.44a.67.67,0,0,0-.28-.07.76.76,0,0,0-.5.21,1.39,1.39,0,0,0-.38.67,7,7,0,0,0-.09,1.41V28h-.54Z"/><path class="cls-1" d="M105.4,23.92h.52v.74a2.17,2.17,0,0,1,.7-.63,1.68,1.68,0,0,1,.83-.21,1.45,1.45,0,0,1,.81.23,1.39,1.39,0,0,1,.52.63A3.13,3.13,0,0,1,109,25.9V28h-.52V26.06a4.6,4.6,0,0,0-.06-.94,1,1,0,0,0-1-.82,1.31,1.31,0,0,0-.86.32,1.47,1.47,0,0,0-.49.78,5.29,5.29,0,0,0-.08,1.11V28h-.52Z"/><path class="cls-1" d="M115,26.65l.44.23a2.2,2.2,0,0,1-.5.69,2,2,0,0,1-.64.4,2.29,2.29,0,0,1-.81.14,1.93,1.93,0,0,1-1.56-.66,2.17,2.17,0,0,1-.56-1.48,2.24,2.24,0,0,1,.47-1.38,2,2,0,0,1,1.62-.77,2,2,0,0,1,1.67.79,2.27,2.27,0,0,1,.45,1.39h-3.67a1.67,1.67,0,0,0,.45,1.17,1.45,1.45,0,0,0,1.09.45,1.8,1.8,0,0,0,.6-.1,1.73,1.73,0,0,0,.5-.29A2.33,2.33,0,0,0,115,26.65Zm0-1.1a1.67,1.67,0,0,0-.31-.67,1.35,1.35,0,0,0-.53-.4,1.52,1.52,0,0,0-.69-.16,1.47,1.47,0,0,0-1,.39,1.79,1.79,0,0,0-.48.84Z"/><path class="cls-1" d="M117.54,23.92h.56l1.4,3.14,1.36-3.14h.56L119,29.49h-.56l.79-1.8Z"/><path class="cls-1" d="M125.6,24.37l-.33.35a1.23,1.23,0,0,0-.83-.41.61.61,0,0,0-.43.17.52.52,0,0,0-.19.39.57.57,0,0,0,.15.38,2.14,2.14,0,0,0,.64.43,2.26,2.26,0,0,1,.79.59,1,1,0,0,1,.21.64,1.17,1.17,0,0,1-.35.85,1.23,1.23,0,0,1-.89.35,1.44,1.44,0,0,1-.67-.16,1.46,1.46,0,0,1-.53-.42l.33-.37a1.15,1.15,0,0,0,.85.45.8.8,0,0,0,.54-.2.64.64,0,0,0,.22-.48.6.6,0,0,0-.15-.4,2.12,2.12,0,0,0-.66-.44,2,2,0,0,1-.75-.56,1.05,1.05,0,0,1-.2-.63,1,1,0,0,1,.32-.77,1.09,1.09,0,0,1,.8-.31A1.63,1.63,0,0,1,125.6,24.37Z"/><path class="cls-1" d="M135.64,23.92V28h-.52v-.7a2.18,2.18,0,0,1-.74.6,1.93,1.93,0,0,1-.9.21,2,2,0,0,1-1.48-.63,2.15,2.15,0,0,1-.61-1.53,2,2,0,0,1,.62-1.5,2,2,0,0,1,1.49-.63,2,2,0,0,1,.91.21,2.15,2.15,0,0,1,.71.64v-.75Zm-2.1.41a1.63,1.63,0,0,0-.81.21,1.65,1.65,0,0,0-.59.61,1.64,1.64,0,0,0,0,1.64,1.6,1.6,0,0,0,.6.61,1.51,1.51,0,0,0,.8.22,1.66,1.66,0,0,0,.81-.21,1.55,1.55,0,0,0,.6-.59,1.8,1.8,0,0,0,.2-.84,1.62,1.62,0,0,0-.46-1.18A1.52,1.52,0,0,0,133.54,24.33Z"/><path class="cls-1" d="M138.73,22.41h.53v1.51h.83v.46h-.83V28h-.53V24.38H138v-.46h.71Z"/><path class="cls-1" d="M146.36,28a4.56,4.56,0,0,0,.48-.07l-.06-.38-.33,0s-.07,0-.09-.12V22.35h-.52v5.19h0c0,.28.16.46.46.46Z"/><path class="cls-1" d="M153,23.92V28h-.52v-.7a2.18,2.18,0,0,1-.74.6,2,2,0,0,1-.9.21,2,2,0,0,1-1.48-.63,2.1,2.1,0,0,1-.61-1.53,2,2,0,0,1,.62-1.5,2,2,0,0,1,1.49-.63,1.93,1.93,0,0,1,.9.21,2.18,2.18,0,0,1,.72.64v-.75Zm-2.1.41a1.63,1.63,0,0,0-.81.21,1.57,1.57,0,0,0-.59.61,1.6,1.6,0,0,0-.22.82,1.71,1.71,0,0,0,.22.82,1.6,1.6,0,0,0,.6.61,1.48,1.48,0,0,0,.8.22,1.69,1.69,0,0,0,.81-.21,1.46,1.46,0,0,0,.59-.59,1.69,1.69,0,0,0,.21-.84A1.62,1.62,0,0,0,152,24.8,1.54,1.54,0,0,0,150.88,24.33Z"/><path class="cls-1" d="M155.06,23.92h.54l1.25,3,1.3-3h.1l1.31,3,1.27-3h.55L159.61,28h-.1l-1.3-2.92L156.9,28h-.1Z"/><path class="cls-1" d="M74,24.63a1.18,1.18,0,0,1,.88.37A1.27,1.27,0,0,1,74,27.18a1.21,1.21,0,0,1-.89-.38,1.25,1.25,0,0,1-.37-.92A1.18,1.18,0,0,1,73.1,25,1.16,1.16,0,0,1,74,24.63Z"/><path class="cls-1" d="M3,.79H5.73v5.3a6.31,6.31,0,0,1,1.61-1A4,4,0,0,1,9,4.71a3.69,3.69,0,0,1,2.74,1.12,3.94,3.94,0,0,1,.95,2.85v7.2H10V11.1a11.6,11.6,0,0,0-.19-2.56,1.8,1.8,0,0,0-.61-1A1.74,1.74,0,0,0,8.1,7.21a2,2,0,0,0-1.42.55,3,3,0,0,0-.83,1.5,12.5,12.5,0,0,0-.12,2.24v4.38H3Z"/><path class="cls-1" d="M26.22,11.22H17.44a2.94,2.94,0,0,0,1,1.85,3.16,3.16,0,0,0,2.1.69,3.69,3.69,0,0,0,2.64-1.07l2.3,1.08a5.49,5.49,0,0,1-2.06,1.8,6.52,6.52,0,0,1-2.86.59,5.63,5.63,0,0,1-4.17-1.62,5.51,5.51,0,0,1-1.61-4,5.66,5.66,0,0,1,1.6-4.13,5.41,5.41,0,0,1,4-1.65,5.6,5.6,0,0,1,4.19,1.65,5.94,5.94,0,0,1,1.61,4.34ZM23.49,9.07a2.82,2.82,0,0,0-1.07-1.48A3.1,3.1,0,0,0,20.57,7a3.28,3.28,0,0,0-2,.64,3.65,3.65,0,0,0-1,1.41Z"/><path class="cls-1" d="M32.18,5H35l2.75,6.42L40.46,5h2.77L38.59,15.88H36.82Z"/><path class="cls-1" d="M52.86,5h2.73V15.88H52.86V14.73a5.46,5.46,0,0,1-1.61,1.09,4.32,4.32,0,0,1-1.74.34,4.86,4.86,0,0,1-3.65-1.64,5.68,5.68,0,0,1-1.54-4.07,5.87,5.87,0,0,1,1.49-4.13,4.76,4.76,0,0,1,3.62-1.61,4.55,4.55,0,0,1,1.84.37,5.21,5.21,0,0,1,1.59,1.11ZM50,7.23a2.76,2.76,0,0,0-2.11.9A3.2,3.2,0,0,0,47,10.42a3.29,3.29,0,0,0,.86,2.33,2.76,2.76,0,0,0,2.1.91,2.82,2.82,0,0,0,2.13-.9A3.26,3.26,0,0,0,53,10.41a3.17,3.17,0,0,0-.85-2.3A2.88,2.88,0,0,0,50,7.23Z"/><path class="cls-1" d="M69,7.19,66.74,8.44a4.07,4.07,0,0,0-1.27-.93A3.9,3.9,0,0,0,64,7.25a3.42,3.42,0,0,0-2.48.92,3.12,3.12,0,0,0-1,2.34,3,3,0,0,0,.92,2.27,3.3,3.3,0,0,0,2.39.88,3.52,3.52,0,0,0,2.86-1.25l2.15,1.47a6.63,6.63,0,0,1-9.44.58,5.57,5.57,0,0,1-1.63-4,5.68,5.68,0,0,1,.79-2.91,5.57,5.57,0,0,1,2.21-2.09A6.54,6.54,0,0,1,64,4.71a6.42,6.42,0,0,1,2.91.64A5.68,5.68,0,0,1,69,7.19Z"/><path class="cls-1" d="M71.17,5H73.9V15.88H71.17Z"/><path class="cls-1" d="M95.07,5H97.8V15.88H95.07V14.73a5.42,5.42,0,0,1-1.6,1.09,4.4,4.4,0,0,1-1.75.34,4.87,4.87,0,0,1-3.65-1.64,5.72,5.72,0,0,1-1.54-4.07A5.87,5.87,0,0,1,88,6.32a4.77,4.77,0,0,1,3.62-1.61,4.55,4.55,0,0,1,1.84.37,5.21,5.21,0,0,1,1.59,1.11ZM92.2,7.23a2.76,2.76,0,0,0-2.11.9,3.24,3.24,0,0,0-.83,2.29,3.28,3.28,0,0,0,.85,2.33,2.92,2.92,0,0,0,4.23,0,3.26,3.26,0,0,0,.85-2.35,3.17,3.17,0,0,0-.85-2.3A2.86,2.86,0,0,0,92.2,7.23Z"/><path class="cls-1" d="M101.63.51a1.65,1.65,0,0,1,1.23.52,1.68,1.68,0,0,1,.52,1.26,1.7,1.7,0,0,1-.51,1.24,1.64,1.64,0,0,1-1.22.52,1.66,1.66,0,0,1-1.24-.53,1.76,1.76,0,0,1-.52-1.27A1.68,1.68,0,0,1,100.4,1,1.68,1.68,0,0,1,101.63.51ZM100.26,5H103V15.88h-2.74Z"/><path class="cls-1" d="M105.5.79h2.73V9.48l4-4.49h3.43L111,10.21l5.26,5.67h-3.4l-4.62-5v5H105.5Z"/><path class="cls-1" d="M131.14,5h2.73V15.88h-2.73V14.73a5.46,5.46,0,0,1-1.61,1.09,4.32,4.32,0,0,1-1.74.34,4.86,4.86,0,0,1-3.65-1.64,5.68,5.68,0,0,1-1.54-4.07,5.87,5.87,0,0,1,1.49-4.13,4.76,4.76,0,0,1,3.62-1.61,4.55,4.55,0,0,1,1.84.37,5.21,5.21,0,0,1,1.59,1.11Zm-2.87,2.24a2.76,2.76,0,0,0-2.11.9,3.2,3.2,0,0,0-.84,2.29,3.29,3.29,0,0,0,.86,2.33,2.76,2.76,0,0,0,2.1.91,2.82,2.82,0,0,0,2.13-.9,3.26,3.26,0,0,0,.85-2.35,3.17,3.17,0,0,0-.85-2.3A2.88,2.88,0,0,0,128.27,7.23Z"/><path class="cls-1" d="M142.43,15.19a3.32,3.32,0,0,0,.48-4.33,6,6,0,0,0-2.17-1.59l-1-.5a3.11,3.11,0,0,1-.81-.5.62.62,0,0,1-.17-.41.59.59,0,0,1,.26-.48,1.2,1.2,0,0,1,.72-.2,2.86,2.86,0,0,1,1.88,1l1.69-1.69a4.53,4.53,0,0,0-1.59-1.34,4.42,4.42,0,0,0-2-.46,3.56,3.56,0,0,0-2.54.92,2.86,2.86,0,0,0-1,2.2q0,2,2.64,3.33l.92.47q1.2.6,1.2,1.23a.77.77,0,0,1-.33.6,1.42,1.42,0,0,1-.88.26,2.5,2.5,0,0,1-1.14-.35,3.94,3.94,0,0,1-1.13-.9l-1.68,1.83a4.49,4.49,0,0,0,3,1.8l-.24.81.56,0a.94.94,0,0,1,.6.15.49.49,0,0,1,.19.41.61.61,0,0,1-.25.51,1.15,1.15,0,0,1-.76.2,4.72,4.72,0,0,1-1.41-.23l-.36,1.29a6.43,6.43,0,0,0,2.22.46,2.84,2.84,0,0,0,1.9-.58,1.77,1.77,0,0,0,.68-1.38,1.41,1.41,0,0,0-.39-1,1.94,1.94,0,0,0-1.05-.58l0-.1A3.7,3.7,0,0,0,142.43,15.19Z"/><path class="cls-1" d="M153.69,5h2.73V15.88h-2.73V14.73a5.46,5.46,0,0,1-1.61,1.09,4.39,4.39,0,0,1-1.74.34,4.84,4.84,0,0,1-3.65-1.64,5.68,5.68,0,0,1-1.54-4.07,5.87,5.87,0,0,1,1.49-4.13,4.76,4.76,0,0,1,3.62-1.61,4.58,4.58,0,0,1,1.84.37,5.21,5.21,0,0,1,1.59,1.11Zm-2.88,2.24a2.75,2.75,0,0,0-2.1.9,3.2,3.2,0,0,0-.84,2.29,3.28,3.28,0,0,0,.85,2.33,2.79,2.79,0,0,0,2.1.91,2.82,2.82,0,0,0,2.14-.9,3.31,3.31,0,0,0,.85-2.35,3.22,3.22,0,0,0-.85-2.3A2.89,2.89,0,0,0,150.81,7.23Z"/><path class="cls-1" d="M158.54,5h2.34V6.36a2.9,2.9,0,0,1,1-1.23,2.44,2.44,0,0,1,1.38-.42,2.47,2.47,0,0,1,1.11.28l-.85,2.35a1.86,1.86,0,0,0-.79-.24,1.24,1.24,0,0,0-1.06.78,7.12,7.12,0,0,0-.44,3.06v4.94h-2.71Z"/><polygon class="cls-1" points="136.19 19.41 136.3 19.03 2.62 19.03 2.62 19.43 136.23 19.43 136.19 19.41"/><path class="cls-1" d="M142.14,19a2.65,2.65,0,0,1-.37.38l0,0h22.63V19Z"/></svg>
