<svg id="katman_1" data-name="katman 1" xmlns="http://www.w3.org/2000/svg" viewBox="0 0 200 37"><defs><style>.cls-1{fill:#9c1829;}.cls-2{fill:#555150;}</style></defs><path class="cls-1" d="M35.49,16.09V2.19H39v14c0,.76.35,1,.64,1a1.48,1.48,0,0,0,.43-.05l.42,2.59a4.51,4.51,0,0,1-1.77.29C36.32,20.06,35.49,18.49,35.49,16.09Z"/><path class="cls-1" d="M97.11,16.09V2.19h3.52v14c0,.76.35,1,.63,1a1.45,1.45,0,0,0,.43-.05l.42,2.59a4.42,4.42,0,0,1-1.76.29C97.94,20.06,97.11,18.49,97.11,16.09Z"/><path class="cls-2" d="M6.47,27.24h.61v2.67a2.48,2.48,0,0,1,.81-.72,1.86,1.86,0,0,1,1-.25,1.69,1.69,0,0,1,.94.27,1.6,1.6,0,0,1,.6.73,3.78,3.78,0,0,1,.2,1.42v2.43H10V31.53a5,5,0,0,0-.07-1.08,1.19,1.19,0,0,0-.41-.71,1.16,1.16,0,0,0-.77-.24,1.52,1.52,0,0,0-1,.37,1.74,1.74,0,0,0-.58.9,7,7,0,0,0-.08,1.28v1.74H6.47Z"/><path class="cls-2" d="M13.5,29.07h.61v2.2a4.67,4.67,0,0,0,.08,1.11,1.3,1.3,0,0,0,.5.69,1.57,1.57,0,0,0,.88.25,1.45,1.45,0,0,0,.86-.25,1.29,1.29,0,0,0,.49-.64A4.61,4.61,0,0,0,17,31.27v-2.2h.62v2.31a3.69,3.69,0,0,1-.23,1.47,1.74,1.74,0,0,1-.69.78,2.19,2.19,0,0,1-1.14.28,2.22,2.22,0,0,1-1.15-.28,1.74,1.74,0,0,1-.69-.78,3.7,3.7,0,0,1-.23-1.51Z"/><path class="cls-2" d="M20.66,27.24h.61V31l2.19-1.9h.89l-2.6,2.25,2.75,2.47h-.85l-2.38-2.13v2.13h-.61Z"/><path class="cls-2" d="M26.73,29.07h.61v2.2a4.51,4.51,0,0,0,.09,1.11,1.25,1.25,0,0,0,.5.69,1.54,1.54,0,0,0,.87.25,1.41,1.41,0,0,0,.86-.25,1.24,1.24,0,0,0,.49-.64,4.61,4.61,0,0,0,.09-1.16v-2.2h.63v2.31a3.69,3.69,0,0,1-.23,1.47,1.74,1.74,0,0,1-.69.78,2.22,2.22,0,0,1-1.15.28,2.25,2.25,0,0,1-1.15-.28,1.74,1.74,0,0,1-.69-.78,3.88,3.88,0,0,1-.23-1.51Z"/><path class="cls-2" d="M33.9,27.24h.61V31l2.18-1.9h.9L35,31.32l2.75,2.47h-.86l-2.37-2.13v2.13H33.9Z"/><path class="cls-2" d="M44.24,33.79V27.24h.6v2.64a2.56,2.56,0,0,1,.86-.7,2.23,2.23,0,0,1,1-.24,2.31,2.31,0,0,1,1.71.73,2.52,2.52,0,0,1,0,3.51,2.31,2.31,0,0,1-1.72.73,2.14,2.14,0,0,1-1-.25,2.4,2.4,0,0,1-.83-.74v.87Zm2.43-.47a1.83,1.83,0,0,0,1.61-1,1.88,1.88,0,0,0,0-1.91,1.81,1.81,0,0,0-.69-.71,1.73,1.73,0,0,0-.91-.25,1.88,1.88,0,0,0-1,.25,1.8,1.8,0,0,0-.69.68,2,2,0,0,0-.24,1,1.88,1.88,0,0,0,.54,1.37A1.77,1.77,0,0,0,46.67,33.32Z"/><path class="cls-2" d="M51.87,29.07h.61v2.2a4.67,4.67,0,0,0,.08,1.11,1.3,1.3,0,0,0,.5.69,1.57,1.57,0,0,0,.88.25,1.45,1.45,0,0,0,.86-.25,1.29,1.29,0,0,0,.49-.64,4.61,4.61,0,0,0,.09-1.16v-2.2H56v2.31a3.69,3.69,0,0,1-.23,1.47,1.78,1.78,0,0,1-.68.78,2.25,2.25,0,0,1-1.15.28,2.22,2.22,0,0,1-1.15-.28,1.74,1.74,0,0,1-.69-.78,3.7,3.7,0,0,1-.23-1.51Zm1.21-1.87a.45.45,0,0,1,.35.15.47.47,0,0,1,.15.35.49.49,0,0,1-.15.36.45.45,0,0,1-.35.15.49.49,0,0,1-.36-.15.48.48,0,0,1-.14-.36.46.46,0,0,1,.14-.35A.49.49,0,0,1,53.08,27.2Zm1.77,0a.45.45,0,0,1,.35.15.47.47,0,0,1,.15.35.49.49,0,0,1-.15.36.45.45,0,0,1-.35.15.49.49,0,0,1-.36-.15.48.48,0,0,1-.14-.36.46.46,0,0,1,.14-.35A.49.49,0,0,1,54.85,27.2Z"/><path class="cls-2" d="M58.81,29.07h.62v.69a2,2,0,0,1,.58-.61,1.13,1.13,0,0,1,.64-.21,1.18,1.18,0,0,1,.54.16l-.31.52a.82.82,0,0,0-.33-.09.91.91,0,0,0-.58.25,1.61,1.61,0,0,0-.43.78,7.16,7.16,0,0,0-.11,1.63v1.6h-.62Z"/><path class="cls-2" d="M65.63,28.94a2.36,2.36,0,0,1,1.81.79,2.54,2.54,0,0,1,0,3.44,2.5,2.5,0,0,1-3.55,0,2.5,2.5,0,0,1-.68-1.73,2.43,2.43,0,0,1,.65-1.7A2.34,2.34,0,0,1,65.63,28.94Zm0,.6a1.75,1.75,0,0,0-1.3.56,1.83,1.83,0,0,0-.55,1.35,1.91,1.91,0,0,0,.25,1,1.82,1.82,0,0,0,.67.68,1.84,1.84,0,0,0,.93.24,1.9,1.9,0,0,0,.93-.24,1.82,1.82,0,0,0,.67-.68,2,2,0,0,0,.24-1,1.86,1.86,0,0,0-.54-1.35A1.78,1.78,0,0,0,65.63,29.54Z"/><path class="cls-2" d="M73.28,29.58l-.4.41a1.38,1.38,0,0,0-.95-.48.7.7,0,0,0-.5.2.58.58,0,0,0-.22.45.66.66,0,0,0,.18.44,2.39,2.39,0,0,0,.73.5,2.62,2.62,0,0,1,.92.68,1.21,1.21,0,0,1,.24.74,1.33,1.33,0,0,1-.41,1,1.39,1.39,0,0,1-1,.41,1.78,1.78,0,0,1-.78-.18,1.64,1.64,0,0,1-.61-.49l.38-.43a1.32,1.32,0,0,0,1,.52.94.94,0,0,0,.63-.23.73.73,0,0,0,.25-.55.68.68,0,0,0-.17-.47,2.77,2.77,0,0,0-.76-.5,2.43,2.43,0,0,1-.87-.65A1.29,1.29,0,0,1,71,29.3a1.29,1.29,0,0,1,.93-.36A2,2,0,0,1,73.28,29.58Z"/><path class="cls-2" d="M76,29.07h.61v2.2a4.51,4.51,0,0,0,.09,1.11,1.23,1.23,0,0,0,.49.69,1.59,1.59,0,0,0,.88.25,1.43,1.43,0,0,0,.86-.25,1.24,1.24,0,0,0,.49-.64,4.61,4.61,0,0,0,.09-1.16v-2.2h.62v2.31a3.52,3.52,0,0,1-.23,1.47,1.78,1.78,0,0,1-.68.78,2.5,2.5,0,0,1-2.3,0,1.74,1.74,0,0,1-.69-.78A3.88,3.88,0,0,1,76,31.34Z"/><path class="cls-2" d="M100.76,29.07v4.72h-.59V33a2.56,2.56,0,0,1-.86.7,2.37,2.37,0,0,1-2.75-.49,2.44,2.44,0,0,1-.71-1.77,2.37,2.37,0,0,1,.72-1.74,2.34,2.34,0,0,1,1.72-.73,2.26,2.26,0,0,1,1,.25,2.51,2.51,0,0,1,.83.74v-.86Zm-2.42.46a1.81,1.81,0,0,0-.94.25,1.93,1.93,0,0,0-.93,1.65,2,2,0,0,0,.25,1,1.9,1.9,0,0,0,1.61,1,2,2,0,0,0,1-.25,1.78,1.78,0,0,0,.68-.68,2,2,0,0,0,.25-1,1.88,1.88,0,0,0-.54-1.37A1.79,1.79,0,0,0,98.34,29.53Z"/><path class="cls-2" d="M104.35,27.31H105v1.76h1v.52h-1v4.2h-.61v-4.2h-.83v-.52h.83Z"/><path class="cls-2" d="M109.05,27.31h.6v1.76h1v.52h-1v4.2h-.6v-4.2h-.83v-.52h.83Z"/><path class="cls-2" d="M115.45,28.94a2.36,2.36,0,0,1,1.81.79,2.54,2.54,0,0,1,0,3.44,2.49,2.49,0,0,1-3.54,0,2.47,2.47,0,0,1-.69-1.73,2.43,2.43,0,0,1,.65-1.7A2.34,2.34,0,0,1,115.45,28.94Zm0,.6a1.75,1.75,0,0,0-1.3.56,1.83,1.83,0,0,0-.55,1.35,2,2,0,0,0,.25,1,1.82,1.82,0,0,0,.67.68,1.84,1.84,0,0,0,.93.24,1.87,1.87,0,0,0,.93-.24,1.82,1.82,0,0,0,.67-.68,2,2,0,0,0,.25-1,1.87,1.87,0,0,0-.55-1.35A1.78,1.78,0,0,0,115.45,29.54Z"/><path class="cls-2" d="M120.49,29.07h.62v.69a2,2,0,0,1,.59-.61,1.11,1.11,0,0,1,.64-.21,1.18,1.18,0,0,1,.54.16l-.32.52a.78.78,0,0,0-.32-.09.89.89,0,0,0-.58.25,1.54,1.54,0,0,0-.43.78,7,7,0,0,0-.12,1.63v1.6h-.62Z"/><path class="cls-2" d="M125.08,29.07h.61v.84a2.48,2.48,0,0,1,.81-.72,1.86,1.86,0,0,1,1-.25,1.67,1.67,0,0,1,.94.27,1.6,1.6,0,0,1,.6.73,3.59,3.59,0,0,1,.2,1.42v2.43h-.61V31.53a6.12,6.12,0,0,0-.06-1.08,1.25,1.25,0,0,0-.41-.71,1.21,1.21,0,0,0-.78-.24,1.52,1.52,0,0,0-1,.37,1.67,1.67,0,0,0-.57.9,6,6,0,0,0-.09,1.28v1.74h-.61Z"/><path class="cls-2" d="M136.16,32.22l.52.27a3,3,0,0,1-.59.8,2.36,2.36,0,0,1-.74.46,2.7,2.7,0,0,1-.93.16,2.26,2.26,0,0,1-1.81-.76,2.55,2.55,0,0,1-.65-1.71,2.51,2.51,0,0,1,.55-1.6,2.25,2.25,0,0,1,1.87-.9,2.33,2.33,0,0,1,1.93.92,2.53,2.53,0,0,1,.52,1.61h-4.25a2,2,0,0,0,.53,1.35,1.69,1.69,0,0,0,1.26.53,1.89,1.89,0,0,0,.7-.13,1.83,1.83,0,0,0,.58-.33A2.68,2.68,0,0,0,136.16,32.22Zm0-1.27a2.17,2.17,0,0,0-.35-.78,1.76,1.76,0,0,0-.62-.47,1.83,1.83,0,0,0-.8-.17,1.7,1.7,0,0,0-1.19.44,1.93,1.93,0,0,0-.55,1Z"/><path class="cls-2" d="M139.14,29.07h.65l1.62,3.63L143,29.07h.65l-2.82,6.44h-.64l.91-2.08Z"/><path class="cls-2" d="M148.48,29.58l-.39.41a1.42,1.42,0,0,0-1-.48.72.72,0,0,0-.5.2.6.6,0,0,0-.21.45.64.64,0,0,0,.17.44,2.53,2.53,0,0,0,.73.5,2.62,2.62,0,0,1,.92.68,1.21,1.21,0,0,1,.24.74,1.33,1.33,0,0,1-.41,1,1.39,1.39,0,0,1-1,.41,1.78,1.78,0,0,1-.78-.18,1.64,1.64,0,0,1-.61-.49l.38-.43a1.32,1.32,0,0,0,1,.52.91.91,0,0,0,.62-.23.73.73,0,0,0,.25-.55.68.68,0,0,0-.17-.47,2.61,2.61,0,0,0-.76-.5,2.43,2.43,0,0,1-.87-.65,1.27,1.27,0,0,1-.23-.74,1.19,1.19,0,0,1,.37-.89,1.25,1.25,0,0,1,.92-.36A2,2,0,0,1,148.48,29.58Z"/><path class="cls-2" d="M160.09,29.07v4.72h-.6V33a2.53,2.53,0,0,1-.85.7,2.38,2.38,0,0,1-2.76-.49,2.43,2.43,0,0,1-.7-1.77,2.46,2.46,0,0,1,2.43-2.47,2.33,2.33,0,0,1,1.06.25,2.48,2.48,0,0,1,.82.74v-.86Zm-2.43.46a1.83,1.83,0,0,0-1.61.95,1.91,1.91,0,0,0-.26.95,2,2,0,0,0,.26,1,1.86,1.86,0,0,0,1.61,1,1.94,1.94,0,0,0,.94-.25,1.8,1.8,0,0,0,.69-.68,2,2,0,0,0,.24-1,1.88,1.88,0,0,0-.54-1.37A1.77,1.77,0,0,0,157.66,29.53Z"/><path class="cls-2" d="M163.67,27.31h.61v1.76h1v.52h-1v4.2h-.61v-4.2h-.82v-.52h.82Z"/><path class="cls-2" d="M172.51,33.78a3.91,3.91,0,0,0,.55-.07l-.07-.45-.38,0c-.05,0-.09,0-.1-.13V27.24h-.61v5.87l0,.15h0c0,.32.17.53.53.53h.06Z"/><path class="cls-2" d="M180.16,29.07v4.72h-.6V33a2.53,2.53,0,0,1-.85.7,2.3,2.3,0,0,1-1,.24,2.28,2.28,0,0,1-1.71-.73,2.52,2.52,0,0,1,0-3.51,2.38,2.38,0,0,1,2.78-.48,2.39,2.39,0,0,1,.82.74v-.86Zm-2.43.46a1.83,1.83,0,0,0-1.61.95,1.91,1.91,0,0,0-.26.95,2,2,0,0,0,.26,1,1.79,1.79,0,0,0,.69.7,1.75,1.75,0,0,0,.92.26,1.94,1.94,0,0,0,.94-.25,1.8,1.8,0,0,0,.69-.68,2,2,0,0,0,.24-1,1.88,1.88,0,0,0-.54-1.37A1.77,1.77,0,0,0,177.73,29.53Z"/><path class="cls-2" d="M182.58,29.07h.62l1.45,3.42,1.51-3.42h.11l1.51,3.42,1.48-3.42h.63l-2,4.72h-.11l-1.51-3.38-1.51,3.38h-.12Z"/><path class="cls-2" d="M88.71,29.88a1.41,1.41,0,0,1,1,.44,1.47,1.47,0,0,1,0,2.08,1.35,1.35,0,0,1-1,.43,1.41,1.41,0,0,1-1-.44,1.46,1.46,0,0,1-.42-1.06,1.39,1.39,0,0,1,.42-1A1.36,1.36,0,0,1,88.71,29.88Z"/><path class="cls-1" d="M6.57,2.28H9.71V8.42a7.32,7.32,0,0,1,1.86-1.2,4.77,4.77,0,0,1,1.9-.4,4.25,4.25,0,0,1,3.16,1.3,4.51,4.51,0,0,1,1.11,3.3v8.33H14.62V14.22a13.5,13.5,0,0,0-.21-3,2.12,2.12,0,0,0-.71-1.16,2,2,0,0,0-1.25-.38,2.33,2.33,0,0,0-1.65.64,3.29,3.29,0,0,0-1,1.73,13.76,13.76,0,0,0-.14,2.6v5.06H6.57Z"/><path class="cls-1" d="M33.42,14.36H23.26a3.39,3.39,0,0,0,1.18,2.14,3.67,3.67,0,0,0,2.44.79,4.22,4.22,0,0,0,3-1.23l2.67,1.25A6.32,6.32,0,0,1,30.2,19.4a7.5,7.5,0,0,1-3.3.68,6.51,6.51,0,0,1-4.83-1.88,6.33,6.33,0,0,1-1.87-4.68,6.58,6.58,0,0,1,1.86-4.79,6.27,6.27,0,0,1,4.67-1.91,6.49,6.49,0,0,1,4.84,1.91,6.9,6.9,0,0,1,1.86,5Zm-3.16-2.49A3.16,3.16,0,0,0,29,10.16a3.58,3.58,0,0,0-2.14-.66,3.76,3.76,0,0,0-2.32.74,4.14,4.14,0,0,0-1.16,1.63Z"/><path class="cls-1" d="M40.32,7.15h3.22l3.19,7.43L49.9,7.15h3.21l-5.36,12.6h-2Z"/><path class="cls-1" d="M64.26,7.15h3.16v12.6H64.26V18.42a6.11,6.11,0,0,1-1.86,1.27,5.14,5.14,0,0,1-2,.39,5.64,5.64,0,0,1-4.23-1.9,6.59,6.59,0,0,1-1.78-4.71A6.76,6.76,0,0,1,56.1,8.69a5.48,5.48,0,0,1,4.19-1.87,5.23,5.23,0,0,1,2.13.43,5.65,5.65,0,0,1,1.84,1.29ZM60.94,9.74a3.21,3.21,0,0,0-2.44,1,3.73,3.73,0,0,0-1,2.66,3.74,3.74,0,0,0,1,2.68A3.18,3.18,0,0,0,61,17.18a3.28,3.28,0,0,0,2.47-1,3.79,3.79,0,0,0,1-2.71,3.71,3.71,0,0,0-1-2.67A3.3,3.3,0,0,0,60.94,9.74Z"/><path class="cls-1" d="M83,9.7l-2.63,1.44a4.63,4.63,0,0,0-1.47-1.07,4.23,4.23,0,0,0-1.7-.31,4,4,0,0,0-2.87,1.06,3.62,3.62,0,0,0-1.1,2.71,3.5,3.5,0,0,0,1.06,2.63,3.82,3.82,0,0,0,2.77,1,4,4,0,0,0,3.31-1.45l2.49,1.71a6.79,6.79,0,0,1-5.72,2.64,6.88,6.88,0,0,1-5.21-2A6.55,6.55,0,0,1,73.48,7.7a7.67,7.67,0,0,1,3.66-.88,7.43,7.43,0,0,1,3.38.75A6.43,6.43,0,0,1,83,9.7Z"/><path class="cls-1" d="M85.46,7.15h3.17v12.6H85.46Z"/><path class="cls-1" d="M113.13,7.15h3.16v12.6h-3.16V18.42a6.23,6.23,0,0,1-1.86,1.27,5.16,5.16,0,0,1-2,.39,5.62,5.62,0,0,1-4.22-1.9,6.59,6.59,0,0,1-1.78-4.71A6.76,6.76,0,0,1,105,8.69a5.48,5.48,0,0,1,4.19-1.87,5.27,5.27,0,0,1,2.13.43,5.76,5.76,0,0,1,1.84,1.29ZM109.8,9.74a3.19,3.19,0,0,0-2.43,1,3.73,3.73,0,0,0-1,2.66,3.78,3.78,0,0,0,1,2.68,3.19,3.19,0,0,0,2.44,1.06,3.28,3.28,0,0,0,2.47-1,3.79,3.79,0,0,0,1-2.71,3.71,3.71,0,0,0-1-2.67A3.32,3.32,0,0,0,109.8,9.74Z"/><path class="cls-1" d="M120.72,2a1.94,1.94,0,0,1,1.43.6A2,2,0,0,1,122.74,4a2,2,0,0,1-.58,1.44,2,2,0,0,1-2.85,0,2,2,0,0,1-.6-1.48,2,2,0,0,1,.59-1.42A1.91,1.91,0,0,1,120.72,2Zm-1.58,5.19h3.16v12.6h-3.16Z"/><path class="cls-1" d="M125.2,2.28h3.16V12.34L133,7.15h4l-5.43,6,6.08,6.56h-3.92l-5.36-5.81v5.81H125.2Z"/><path class="cls-1" d="M154.88,7.15H158v12.6h-3.16V18.42A6.11,6.11,0,0,1,153,19.69a5.14,5.14,0,0,1-2,.39,5.64,5.64,0,0,1-4.23-1.9A6.59,6.59,0,0,1,145,13.47a6.76,6.76,0,0,1,1.72-4.78,5.48,5.48,0,0,1,4.19-1.87,5.23,5.23,0,0,1,2.13.43,5.65,5.65,0,0,1,1.84,1.29Zm-3.32,2.59a3.21,3.21,0,0,0-2.44,1,3.73,3.73,0,0,0-1,2.66,3.74,3.74,0,0,0,1,2.68,3.18,3.18,0,0,0,2.43,1.06,3.26,3.26,0,0,0,2.47-1,3.79,3.79,0,0,0,1-2.71,3.71,3.71,0,0,0-1-2.67A3.29,3.29,0,0,0,151.56,9.74Z"/><path class="cls-1" d="M168,19a3.84,3.84,0,0,0,.55-5A6.94,6.94,0,0,0,166,12.1l-1.16-.57a3.74,3.74,0,0,1-.94-.59.67.67,0,0,1,.11-1,1.36,1.36,0,0,1,.83-.23A3.36,3.36,0,0,1,167,10.86l2-1.95a5.16,5.16,0,0,0-1.84-1.55,5.09,5.09,0,0,0-2.31-.54,4.17,4.17,0,0,0-2.95,1.06,3.35,3.35,0,0,0-1.15,2.56c0,1.54,1,2.83,3.06,3.85l1.06.54c.92.46,1.38.94,1.38,1.42a.9.9,0,0,1-.38.7,1.58,1.58,0,0,1-1,.3,2.94,2.94,0,0,1-1.32-.4,4.6,4.6,0,0,1-1.31-1.05l-1.94,2.12A5.17,5.17,0,0,0,163.78,20l-.28.93.65,0a1.18,1.18,0,0,1,.7.17.61.61,0,0,1,.22.48.73.73,0,0,1-.29.6,1.45,1.45,0,0,1-.88.22,5.61,5.61,0,0,1-1.64-.26l-.42,1.49a7.42,7.42,0,0,0,2.58.53,3.28,3.28,0,0,0,2.19-.67,2,2,0,0,0,.78-1.6,1.63,1.63,0,0,0-.44-1.11,2.25,2.25,0,0,0-1.22-.67l0-.12A4.25,4.25,0,0,0,168,19Z"/><path class="cls-1" d="M181,7.15h3.17v12.6H181V18.42a6.07,6.07,0,0,1-1.85,1.27,5.19,5.19,0,0,1-2,.39,5.64,5.64,0,0,1-4.23-1.9,6.63,6.63,0,0,1-1.78-4.71,6.77,6.77,0,0,1,1.73-4.78A5.45,5.45,0,0,1,177,6.82a5.23,5.23,0,0,1,2.13.43A5.65,5.65,0,0,1,181,8.54Zm-3.32,2.59a3.21,3.21,0,0,0-2.44,1,3.77,3.77,0,0,0-1,2.66,3.74,3.74,0,0,0,1,2.68,3.18,3.18,0,0,0,2.43,1.06,3.26,3.26,0,0,0,2.47-1,3.75,3.75,0,0,0,1-2.71,3.66,3.66,0,0,0-1-2.67A3.29,3.29,0,0,0,177.66,9.74Z"/><path class="cls-1" d="M186.6,7.15h2.71V8.73a3.48,3.48,0,0,1,1.17-1.42,2.79,2.79,0,0,1,1.6-.49,2.94,2.94,0,0,1,1.29.33l-1,2.72a2.09,2.09,0,0,0-.91-.28,1.46,1.46,0,0,0-1.24.9,8.44,8.44,0,0,0-.5,3.55v5.71H186.6Z"/><polygon class="cls-2" points="160.73 23.84 160.85 23.4 6.1 23.4 6.1 23.86 160.78 23.86 160.73 23.84"/><path class="cls-2" d="M167.62,23.4a3.57,3.57,0,0,1-.43.44l0,0h26.21V23.4Z"/></svg>
